# xmcd
#
# Track frame offsets: 
#        150
#        23579
#        38493
#        54030
#        75172
#
# Disc length: 1352 seconds
#
# Revision: 0
# Processed by: cddbd v1.5.2PL0 Copyright (c) Steve Scherf et al.
# Submitted via: ExactAudioCopyFreeDBPlugin 1.0
#
DISCID=1f054605
DTITLE=Harvey Danger - Sometimes You Have To Work On Christmas (Someti
DTITLE=mes)
DYEAR=1900
DGENRE=Country
TTITLE0=Sometimes You Have To Work On Christmas (Sometimes)
TTITLE1=Plague of Locusts
TTITLE2=Wine, Women and Song (demo)
TTITLE3=Pike St.-Park Slope (demo)
TTITLE4=Jack The Lion (Live)
EXTD=
EXTT0=
EXTT1=
EXTT2=
EXTT3=
EXTT4=
PLAYORDER=
